<svg xmlns="http://www.w3.org/2000/svg" xmlns:xlink="http://www.w3.org/1999/xlink" width="920" zoomAndPan="magnify" viewBox="0 0 690 689.999997" height="920" preserveAspectRatio="xMidYMid meet" version="1.2"><g id="705e1b33dc"><path style=" stroke:none;fill-rule:nonzero;fill:#525272;fill-opacity:1;" d="M 668.4375 345 C 668.4375 523.96875 523.96875 668.4375 345 668.4375 C 166.03125 668.4375 21.5625 523.96875 21.5625 345 C 21.5625 189.75 130.453125 60.375 277.078125 29.109375 L 285.703125 29.109375 L 292.171875 25.875 C 297.5625 24.796875 302.953125 24.796875 308.34375 23.71875 L 319.125 23.71875 L 327.75 21.5625 L 332.0625 21.5625 L 345 23.71875 L 353.625 21.5625 L 357.9375 21.5625 L 375.1875 25.875 L 395.671875 24.796875 C 397.828125 24.796875 401.0625 25.875 403.21875 25.875 L 480.84375 75.46875 L 564.9375 107.8125 C 628.546875 167.109375 668.4375 251.203125 668.4375 345 "/><path style=" stroke:none;fill-rule:nonzero;fill:#ffc942;fill-opacity:1;" d="M 361.171875 123.984375 C 382.734375 130.453125 381.65625 117.515625 394.59375 132.609375 C 402.140625 141.234375 416.15625 157.40625 432.328125 161.71875 C 434.484375 162.796875 439.875 157.40625 439.875 153.09375 C 439.875 148.78125 428.015625 141.234375 421.546875 139.078125 C 415.078125 136.921875 423.703125 125.0625 415.078125 121.828125 C 406.453125 118.59375 396.75 104.578125 393.515625 93.796875 C 390.28125 83.015625 375.1875 91.640625 369.796875 89.484375 C 364.40625 87.328125 357.9375 88.40625 352.546875 97.03125 C 347.15625 105.65625 355.78125 121.828125 361.171875 123.984375 "/><path style=" stroke:none;fill-rule:nonzero;fill:#ffc942;fill-opacity:1;" d="M 474.375 428.015625 C 474.375 423.703125 432.328125 401.0625 428.015625 399.984375 C 419.390625 399.984375 408.609375 395.671875 401.0625 399.984375 C 397.828125 402.140625 394.59375 404.296875 393.515625 407.53125 C 392.4375 409.6875 383.8125 405.375 380.578125 406.453125 C 373.03125 410.765625 368.71875 397.828125 370.875 392.4375 C 376.265625 380.578125 357.9375 388.125 355.78125 384.890625 C 357.9375 389.203125 354.703125 350.390625 348.234375 371.953125 C 342.84375 388.125 324.515625 369.796875 326.671875 357.9375 C 329.90625 339.609375 357.9375 336.375 364.40625 339.609375 C 367.640625 341.765625 378.421875 357.9375 380.578125 356.859375 C 383.8125 355.78125 378.421875 337.453125 378.421875 335.296875 C 376.265625 326.671875 393.515625 323.4375 394.59375 313.734375 C 395.671875 306.1875 401.0625 308.34375 406.453125 304.03125 C 414 297.5625 408.609375 286.78125 418.3125 280.3125 C 421.546875 278.15625 434.484375 277.078125 435.5625 272.765625 C 436.640625 269.53125 424.78125 260.90625 435.5625 257.671875 C 445.265625 255.515625 454.96875 259.828125 457.125 245.8125 C 459.28125 233.953125 445.265625 230.71875 442.03125 221.015625 C 440.953125 217.78125 438.796875 201.609375 433.40625 204.84375 C 425.859375 209.15625 421.546875 217.78125 416.15625 207 C 405.375 187.59375 379.5 178.96875 391.359375 210.234375 C 397.828125 226.40625 374.109375 274.921875 370.875 229.640625 C 369.796875 214.546875 323.4375 209.15625 338.53125 191.90625 C 354.703125 174.65625 376.265625 173.578125 381.65625 146.625 C 390.28125 108.890625 364.40625 141.234375 350.390625 133.6875 C 330.984375 122.90625 347.15625 128.296875 337.453125 142.3125 C 333.140625 147.703125 321.28125 139.078125 314.8125 140.15625 C 309.421875 141.234375 296.484375 152.015625 292.171875 145.546875 C 285.703125 132.609375 239.34375 123.984375 226.40625 129.375 C 200.53125 139.078125 190.828125 126.140625 164.953125 120.75 C 156.328125 118.59375 111.046875 117.515625 114.28125 132.609375 C 115.359375 139.078125 119.671875 143.390625 121.828125 148.78125 C 125.0625 157.40625 112.125 150.9375 108.890625 153.09375 C 107.8125 154.171875 123.984375 164.953125 125.0625 166.03125 C 129.375 170.34375 108.890625 175.734375 106.734375 183.28125 C 102.421875 198.375 134.765625 194.0625 129.375 211.3125 C 127.21875 216.703125 108.890625 225.328125 106.734375 243.65625 C 106.734375 246.890625 129.375 221.015625 144.46875 226.40625 C 157.40625 230.71875 156.328125 195.140625 173.578125 195.140625 C 204.84375 195.140625 210.234375 225.328125 226.40625 245.8125 C 233.953125 255.515625 240.421875 258.75 241.5 271.6875 C 242.578125 283.546875 240.421875 297.5625 244.734375 308.34375 C 249.046875 319.125 256.59375 319.125 261.984375 327.75 C 268.453125 337.453125 271.6875 347.15625 280.3125 355.78125 C 293.25 368.71875 313.734375 387.046875 333.140625 384.890625 C 337.453125 383.8125 351.46875 392.4375 354.703125 394.59375 C 360.09375 398.90625 362.25 404.296875 366.5625 409.6875 C 369.796875 414 380.578125 411.84375 385.96875 414 C 390.28125 416.15625 375.1875 448.5 380.578125 457.125 C 387.046875 466.828125 387.046875 476.53125 396.75 484.078125 C 405.375 490.546875 408.609375 491.625 409.6875 503.484375 C 411.84375 522.890625 405.375 543.375 401.0625 561.703125 C 398.90625 571.40625 403.21875 582.1875 399.984375 590.8125 C 395.671875 601.59375 392.4375 611.296875 396.75 624.234375 C 403.21875 645.796875 443.109375 649.03125 419.390625 630.703125 C 409.6875 623.15625 430.171875 602.671875 423.703125 601.59375 C 412.921875 597.28125 425.859375 592.96875 426.9375 587.578125 C 430.171875 577.875 473.296875 539.0625 476.53125 532.59375 C 479.765625 527.203125 477.609375 521.8125 481.921875 516.421875 C 487.3125 511.03125 493.78125 513.1875 499.171875 508.875 C 511.03125 501.328125 506.71875 488.390625 511.03125 477.609375 C 520.734375 456.046875 523.96875 464.671875 511.03125 448.5 C 506.71875 443.109375 475.453125 445.265625 474.375 428.015625 "/><path style=" stroke:none;fill-rule:nonzero;fill:#ffc942;fill-opacity:1;" d="M 241.5 108.890625 C 249.046875 117.515625 257.671875 104.578125 258.75 108.890625 C 259.828125 113.203125 259.828125 121.828125 269.53125 121.828125 C 279.234375 121.828125 260.90625 128.296875 266.296875 131.53125 C 272.765625 133.6875 285.703125 142.3125 290.015625 139.078125 C 294.328125 135.84375 300.796875 132.609375 302.953125 135.84375 C 305.109375 138 318.046875 135.84375 314.8125 131.53125 C 311.578125 127.21875 300.796875 116.4375 301.875 111.046875 C 301.875 104.578125 313.734375 89.484375 300.796875 91.640625 C 293.25 90.5625 291.09375 98.109375 291.09375 102.421875 C 291.09375 106.734375 279.234375 95.953125 277.078125 95.953125 C 274.921875 95.953125 266.296875 83.015625 263.0625 83.015625 C 259.828125 83.015625 239.34375 76.546875 241.5 83.015625 C 243.65625 89.484375 233.953125 100.265625 241.5 108.890625 "/><path style=" stroke:none;fill-rule:nonzero;fill:#ffc942;fill-opacity:1;" d="M 424.78125 171.421875 C 418.3125 168.1875 406.453125 152.015625 402.140625 157.40625 C 396.75 162.796875 403.21875 174.65625 407.53125 180.046875 C 411.84375 185.4375 430.171875 196.21875 428.015625 191.90625 C 425.859375 187.59375 436.640625 177.890625 424.78125 171.421875 "/><path style=" stroke:none;fill-rule:nonzero;fill:#ffc942;fill-opacity:1;" d="M 253.359375 60.375 C 256.59375 60.375 261.984375 71.15625 266.296875 72.234375 C 270.609375 73.3125 272.765625 78.703125 274.921875 79.78125 C 277.078125 80.859375 296.484375 73.3125 300.796875 72.234375 C 306.1875 70.078125 295.40625 59.296875 291.09375 51.75 C 287.859375 44.203125 291.09375 64.6875 284.625 61.453125 C 278.15625 58.21875 280.3125 53.90625 273.84375 53.90625 C 267.375 53.90625 271.6875 39.890625 263.0625 43.125 C 254.4375 46.359375 250.125 60.375 253.359375 60.375 "/><path style=" stroke:none;fill-rule:nonzero;fill:#ffc942;fill-opacity:1;" d="M 323.4375 86.25 C 318.046875 87.328125 319.125 91.640625 315.890625 94.875 C 312.65625 98.109375 312.65625 102.421875 315.890625 106.734375 C 319.125 111.046875 323.4375 117.515625 326.671875 111.046875 C 329.90625 104.578125 326.671875 99.1875 326.671875 94.875 C 326.671875 90.5625 326.671875 85.171875 323.4375 86.25 "/><path style=" stroke:none;fill-rule:nonzero;fill:#ffc942;fill-opacity:1;" d="M 335.296875 106.734375 C 336.375 109.96875 339.609375 100.265625 345 95.953125 C 350.390625 90.5625 341.765625 78.703125 337.453125 85.171875 C 333.140625 88.40625 334.21875 103.5 335.296875 106.734375 "/><path style=" stroke:none;fill-rule:nonzero;fill:#ffc942;fill-opacity:1;" d="M 334.21875 111.046875 C 330.984375 115.359375 328.828125 126.140625 334.21875 127.21875 C 339.609375 128.296875 342.84375 121.828125 340.6875 117.515625 C 338.53125 113.203125 335.296875 108.890625 334.21875 111.046875 "/><path style=" stroke:none;fill-rule:nonzero;fill:#ffc942;fill-opacity:1;" d="M 355.78125 37.734375 C 350.390625 39.890625 363.328125 44.203125 354.703125 46.359375 C 346.078125 48.515625 346.078125 56.0625 338.53125 49.59375 C 330.984375 43.125 322.359375 51.75 328.828125 54.984375 C 335.296875 58.21875 343.921875 67.921875 343.921875 72.234375 C 343.921875 77.625 352.546875 79.78125 361.171875 78.703125 C 369.796875 77.625 380.578125 80.859375 380.578125 76.546875 C 380.578125 72.234375 381.65625 71.15625 380.578125 67.921875 C 379.5 63.609375 375.1875 59.296875 366.5625 63.609375 C 357.9375 66.84375 351.46875 65.765625 350.390625 61.453125 C 349.3125 57.140625 367.640625 48.515625 376.265625 54.984375 C 384.890625 60.375 392.4375 51.75 385.96875 47.4375 C 379.5 43.125 383.8125 38.8125 388.125 38.8125 C 391.359375 38.8125 393.515625 30.1875 395.671875 24.796875 C 382.734375 22.640625 369.796875 21.5625 356.859375 20.484375 C 357.9375 30.1875 361.171875 35.578125 355.78125 37.734375 "/><path style=" stroke:none;fill-rule:nonzero;fill:#ffc942;fill-opacity:1;" d="M 279.234375 30.1875 C 284.625 32.34375 294.328125 30.1875 293.25 25.875 L 277.078125 29.109375 C 277.078125 29.109375 278.15625 30.1875 279.234375 30.1875 "/><path style=" stroke:none;fill-rule:nonzero;fill:#ffc942;fill-opacity:1;" d="M 282.46875 34.5 C 273.84375 30.1875 274.921875 40.96875 278.15625 44.203125 C 281.390625 47.4375 293.25 39.890625 282.46875 34.5 "/><path style=" stroke:none;fill-rule:nonzero;fill:#ffc942;fill-opacity:1;" d="M 332.0625 21.5625 C 338.53125 22.640625 341.765625 26.953125 342.84375 31.265625 C 345 34.5 353.625 26.953125 353.625 21.5625 L 332.0625 21.5625 "/><path style=" stroke:none;fill-rule:nonzero;fill:#ffc942;fill-opacity:1;" d="M 314.8125 33.421875 C 311.578125 38.8125 314.8125 44.203125 319.125 39.890625 C 323.4375 34.5 320.203125 21.5625 323.4375 28.03125 C 326.671875 33.421875 333.140625 42.046875 337.453125 43.125 C 341.765625 43.125 338.53125 37.734375 337.453125 33.421875 C 337.453125 29.109375 326.671875 24.796875 327.75 22.640625 C 321.28125 22.640625 314.8125 23.71875 308.34375 23.71875 C 312.65625 26.953125 318.046875 30.1875 314.8125 33.421875 "/><path style=" stroke:none;fill-rule:nonzero;fill:#ffc942;fill-opacity:1;" d="M 334.21875 77.625 C 339.609375 79.78125 334.21875 66.84375 334.21875 66.84375 C 328.828125 70.078125 328.828125 75.46875 334.21875 77.625 "/><path style=" stroke:none;fill-rule:nonzero;fill:#ffc942;fill-opacity:1;" d="M 315.890625 69 C 316.96875 72.234375 322.359375 73.3125 325.59375 69 C 328.828125 64.6875 325.59375 47.4375 321.28125 52.828125 C 316.96875 58.21875 312.65625 56.0625 304.03125 52.828125 C 295.40625 49.59375 314.8125 65.765625 315.890625 69 "/><path style=" stroke:none;fill-rule:nonzero;fill:#ffc942;fill-opacity:1;" d="M 373.03125 366.5625 C 380.578125 365.484375 384.890625 374.109375 392.4375 374.109375 C 399.984375 374.109375 412.921875 385.96875 419.390625 378.421875 C 424.78125 373.03125 394.59375 367.640625 384.890625 362.25 C 374.109375 356.859375 365.484375 367.640625 373.03125 366.5625 "/><path style=" stroke:none;fill-rule:nonzero;fill:#ffc942;fill-opacity:1;" d="M 408.609375 38.8125 C 418.3125 43.125 417.234375 43.125 410.765625 48.515625 C 404.296875 53.90625 406.453125 63.609375 420.46875 62.53125 C 434.484375 61.453125 442.03125 48.515625 448.5 66.84375 C 454.96875 86.25 450.65625 106.734375 458.203125 112.125 C 465.75 117.515625 459.28125 121.828125 458.203125 127.21875 C 457.125 132.609375 460.359375 136.921875 466.828125 134.765625 C 473.296875 132.609375 471.140625 144.46875 466.828125 148.78125 C 462.515625 153.09375 457.125 162.796875 471.140625 178.96875 C 485.15625 195.140625 486.234375 192.984375 490.546875 199.453125 C 494.859375 204.84375 498.09375 197.296875 499.171875 190.828125 C 500.25 184.359375 494.859375 161.71875 511.03125 161.71875 C 526.125 161.71875 530.4375 149.859375 532.59375 145.546875 C 534.75 141.234375 546.609375 142.3125 553.078125 136.921875 C 558.46875 131.53125 564.9375 127.21875 566.015625 107.8125 C 521.8125 66.84375 466.828125 38.8125 405.375 26.953125 C 403.21875 31.265625 403.21875 36.65625 408.609375 38.8125 "/></g></svg>