<svg xmlns="http://www.w3.org/2000/svg" xmlns:xlink="http://www.w3.org/1999/xlink" width="920" zoomAndPan="magnify" viewBox="0 0 690 689.999997" height="920" preserveAspectRatio="xMidYMid meet" version="1.2"><g id="2d8bbbd16a"><path style=" stroke:none;fill-rule:nonzero;fill:#ffb700;fill-opacity:1;" d="M 655.761719 379.273438 C 655.761719 384.363281 655.632812 389.445312 655.382812 394.523438 C 655.132812 399.605469 654.753906 404.675781 654.257812 409.738281 C 653.757812 414.800781 653.132812 419.847656 652.386719 424.878906 C 651.640625 429.910156 650.769531 434.917969 649.777344 439.90625 C 648.78125 444.894531 647.667969 449.855469 646.429688 454.789062 C 645.195312 459.722656 643.835938 464.625 642.359375 469.492188 C 640.882812 474.359375 639.285156 479.1875 637.570312 483.976562 C 635.855469 488.765625 634.027344 493.507812 632.078125 498.207031 C 630.132812 502.90625 628.070312 507.554688 625.890625 512.152344 C 623.714844 516.75 621.429688 521.292969 619.03125 525.777344 C 616.632812 530.261719 614.125 534.6875 611.511719 539.046875 C 608.894531 543.410156 606.175781 547.707031 603.347656 551.933594 C 600.523438 556.164062 597.59375 560.320312 594.5625 564.40625 C 591.53125 568.488281 588.402344 572.496094 585.175781 576.429688 C 581.945312 580.359375 578.625 584.210938 575.207031 587.976562 C 571.792969 591.746094 568.285156 595.429688 564.6875 599.023438 C 561.089844 602.621094 557.40625 606.125 553.636719 609.539062 C 549.867188 612.957031 546.015625 616.277344 542.085938 619.503906 C 538.152344 622.730469 534.144531 625.855469 530.058594 628.886719 C 525.972656 631.914062 521.8125 634.84375 517.582031 637.667969 C 513.355469 640.492188 509.058594 643.210938 504.695312 645.828125 C 500.332031 648.441406 495.90625 650.945312 491.417969 653.34375 C 486.933594 655.738281 482.390625 658.027344 477.792969 660.199219 C 473.195312 662.375 468.546875 664.433594 463.847656 666.378906 C 459.144531 668.324219 454.402344 670.152344 449.613281 671.867188 C 444.820312 673.578125 439.992188 675.171875 435.125 676.648438 C 430.257812 678.125 425.359375 679.480469 420.421875 680.714844 C 415.488281 681.949219 410.53125 683.0625 405.542969 684.054688 C 400.550781 685.046875 395.542969 685.914062 390.507812 686.660156 C 385.476562 687.40625 380.429688 688.027344 375.371094 688.527344 C 370.308594 689.023438 365.234375 689.398438 360.15625 689.644531 C 355.078125 689.894531 349.992188 690.019531 344.90625 690.019531 C 339.820312 690.015625 334.738281 689.890625 329.65625 689.640625 C 324.574219 689.390625 319.503906 689.015625 314.441406 688.515625 C 309.378906 688.015625 304.335938 687.394531 299.304688 686.648438 C 294.273438 685.898438 289.261719 685.03125 284.273438 684.035156 C 279.285156 683.042969 274.324219 681.929688 269.386719 680.691406 C 264.453125 679.457031 259.554688 678.097656 254.6875 676.621094 C 249.820312 675.144531 244.992188 673.546875 240.203125 671.835938 C 235.417969 670.121094 230.671875 668.289062 225.972656 666.34375 C 221.273438 664.394531 216.625 662.332031 212.027344 660.15625 C 207.429688 657.984375 202.886719 655.695312 198.402344 653.296875 C 193.917969 650.898438 189.492188 648.390625 185.128906 645.777344 C 180.769531 643.160156 176.472656 640.441406 172.246094 637.613281 C 168.015625 634.789062 163.859375 631.859375 159.773438 628.828125 C 155.6875 625.796875 151.679688 622.667969 147.75 619.441406 C 143.816406 616.214844 139.964844 612.890625 136.199219 609.476562 C 132.429688 606.058594 128.75 602.554688 125.152344 598.957031 C 121.554688 595.359375 118.050781 591.675781 114.636719 587.90625 C 111.222656 584.136719 107.898438 580.285156 104.671875 576.355469 C 101.445312 572.421875 98.320312 568.414062 95.289062 564.328125 C 92.257812 560.242188 89.332031 556.082031 86.507812 551.855469 C 83.683594 547.625 80.960938 543.328125 78.347656 538.964844 C 75.734375 534.601562 73.226562 530.175781 70.832031 525.691406 C 68.433594 521.203125 66.148438 516.664062 63.972656 512.0625 C 61.800781 507.464844 59.738281 502.816406 57.792969 498.117188 C 55.847656 493.417969 54.019531 488.675781 52.304688 483.882812 C 50.59375 479.09375 48.996094 474.265625 47.523438 469.398438 C 46.046875 464.53125 44.691406 459.632812 43.453125 454.695312 C 42.21875 449.761719 41.105469 444.800781 40.113281 439.8125 C 39.121094 434.824219 38.253906 429.8125 37.507812 424.78125 C 36.761719 419.75 36.140625 414.703125 35.640625 409.640625 C 35.144531 404.578125 34.769531 399.507812 34.519531 394.429688 C 34.273438 389.347656 34.148438 384.265625 34.148438 379.179688 C 34.148438 374.09375 34.273438 369.007812 34.523438 363.929688 C 34.773438 358.847656 35.148438 353.777344 35.648438 348.714844 C 36.148438 343.652344 36.769531 338.605469 37.515625 333.574219 C 38.265625 328.542969 39.136719 323.535156 40.128906 318.546875 C 41.121094 313.558594 42.234375 308.597656 43.46875 303.664062 C 44.707031 298.726562 46.0625 293.828125 47.542969 288.960938 C 49.019531 284.09375 50.613281 279.265625 52.328125 274.476562 C 54.042969 269.6875 55.871094 264.945312 57.820312 260.246094 C 59.765625 255.546875 61.824219 250.898438 64 246.300781 C 66.179688 241.699219 68.464844 237.160156 70.863281 232.671875 C 73.261719 228.1875 75.765625 223.765625 78.382812 219.402344 C 80.996094 215.039062 83.71875 210.742188 86.542969 206.515625 C 89.371094 202.285156 92.296875 198.128906 95.328125 194.042969 C 98.359375 189.957031 101.488281 185.949219 104.714844 182.019531 C 107.941406 178.085938 111.265625 174.238281 114.679688 170.46875 C 118.097656 166.699219 121.601562 163.015625 125.199219 159.421875 C 128.796875 155.824219 132.480469 152.320312 136.246094 148.902344 C 140.015625 145.488281 143.867188 142.167969 147.800781 138.941406 C 151.734375 135.714844 155.742188 132.585938 159.828125 129.554688 C 163.914062 126.527344 168.070312 123.597656 172.300781 120.773438 C 176.53125 117.949219 180.824219 115.226562 185.1875 112.613281 C 189.550781 110 193.976562 107.492188 198.460938 105.09375 C 202.945312 102.699219 207.488281 100.410156 212.089844 98.238281 C 216.6875 96.0625 221.335938 94.003906 226.035156 92.054688 C 230.734375 90.109375 235.476562 88.28125 240.265625 86.566406 C 245.054688 84.855469 249.882812 83.257812 254.75 81.785156 C 259.617188 80.308594 264.519531 78.953125 269.453125 77.714844 C 274.390625 76.480469 279.351562 75.367188 284.339844 74.375 C 289.328125 73.382812 294.335938 72.511719 299.367188 71.769531 C 304.398438 71.023438 309.449219 70.398438 314.507812 69.902344 C 319.570312 69.402344 324.640625 69.03125 329.722656 68.78125 C 334.800781 68.53125 339.886719 68.40625 344.972656 68.40625 C 350.0625 68.40625 355.144531 68.53125 360.226562 68.78125 C 365.308594 69.03125 370.378906 69.402344 375.441406 69.902344 C 380.507812 70.402344 385.554688 71.023438 390.585938 71.769531 C 395.621094 72.515625 400.628906 73.386719 405.621094 74.378906 C 410.609375 75.371094 415.574219 76.484375 420.507812 77.71875 C 425.441406 78.957031 430.34375 80.3125 435.210938 81.789062 C 440.078125 83.265625 444.90625 84.863281 449.699219 86.574219 C 454.488281 88.289062 459.230469 90.121094 463.929688 92.066406 C 468.632812 94.015625 473.28125 96.074219 477.878906 98.25 C 482.476562 100.425781 487.019531 102.710938 491.507812 105.109375 C 495.992188 107.507812 500.417969 110.015625 504.78125 112.632812 C 509.144531 115.246094 513.441406 117.96875 517.671875 120.796875 C 521.902344 123.621094 526.058594 126.550781 530.140625 129.582031 C 534.226562 132.613281 538.238281 135.742188 542.167969 138.96875 C 546.101562 142.195312 549.949219 145.519531 553.71875 148.9375 C 557.488281 152.351562 561.171875 155.859375 564.769531 159.457031 C 568.367188 163.054688 571.871094 166.738281 575.289062 170.507812 C 578.703125 174.277344 582.027344 178.128906 585.253906 182.0625 C 588.480469 185.996094 591.605469 190.007812 594.636719 194.09375 C 597.667969 198.179688 600.59375 202.335938 603.417969 206.566406 C 606.246094 210.796875 608.964844 215.09375 611.578125 219.460938 C 614.195312 223.824219 616.699219 228.25 619.097656 232.734375 C 621.492188 237.222656 623.777344 241.765625 625.953125 246.363281 C 628.125 250.964844 630.1875 255.613281 632.132812 260.316406 C 634.078125 265.015625 635.90625 269.761719 637.621094 274.550781 C 639.332031 279.339844 640.925781 284.167969 642.402344 289.039062 C 643.878906 293.90625 645.234375 298.808594 646.46875 303.742188 C 647.703125 308.679688 648.816406 313.640625 649.808594 318.632812 C 650.796875 323.621094 651.664062 328.632812 652.410156 333.664062 C 653.15625 338.695312 653.777344 343.742188 654.273438 348.808594 C 654.769531 353.871094 655.144531 358.941406 655.390625 364.023438 C 655.640625 369.105469 655.761719 374.1875 655.761719 379.273438 Z M 655.761719 379.273438 "/><path style=" stroke:none;fill-rule:nonzero;fill:#f4f4f4;fill-opacity:1;" d="M 573.492188 379.273438 C 573.488281 383.015625 573.398438 386.753906 573.214844 390.488281 C 573.027344 394.226562 572.753906 397.953125 572.386719 401.675781 C 572.015625 405.398438 571.558594 409.109375 571.011719 412.808594 C 570.460938 416.507812 569.820312 420.191406 569.085938 423.859375 C 568.355469 427.527344 567.539062 431.175781 566.628906 434.804688 C 565.71875 438.433594 564.71875 442.035156 563.632812 445.613281 C 562.546875 449.195312 561.371094 452.742188 560.109375 456.265625 C 558.851562 459.785156 557.503906 463.273438 556.070312 466.730469 C 554.640625 470.183594 553.125 473.601562 551.523438 476.984375 C 549.921875 480.363281 548.242188 483.703125 546.476562 487.003906 C 544.710938 490.300781 542.867188 493.554688 540.945312 496.761719 C 539.019531 499.96875 537.019531 503.128906 534.941406 506.238281 C 532.863281 509.347656 530.707031 512.402344 528.480469 515.40625 C 526.25 518.410156 523.949219 521.355469 521.574219 524.246094 C 519.203125 527.136719 516.757812 529.96875 514.246094 532.738281 C 511.734375 535.511719 509.15625 538.21875 506.511719 540.863281 C 503.863281 543.503906 501.15625 546.082031 498.382812 548.59375 C 495.613281 551.105469 492.78125 553.546875 489.886719 555.917969 C 486.996094 558.292969 484.046875 560.589844 481.042969 562.816406 C 478.039062 565.046875 474.980469 567.199219 471.871094 569.273438 C 468.757812 571.351562 465.597656 573.351562 462.390625 575.273438 C 459.183594 577.195312 455.929688 579.039062 452.628906 580.800781 C 449.328125 582.5625 445.992188 584.242188 442.609375 585.839844 C 439.226562 587.4375 435.808594 588.953125 432.351562 590.382812 C 428.898438 591.816406 425.40625 593.160156 421.886719 594.417969 C 418.363281 595.679688 414.8125 596.851562 411.234375 597.933594 C 407.652344 599.019531 404.050781 600.015625 400.421875 600.921875 C 396.792969 601.832031 393.144531 602.648438 389.476562 603.378906 C 385.808594 604.109375 382.125 604.746094 378.425781 605.292969 C 374.722656 605.839844 371.011719 606.296875 367.292969 606.664062 C 363.570312 607.03125 359.839844 607.304688 356.105469 607.488281 C 352.367188 607.667969 348.628906 607.761719 344.890625 607.757812 C 341.148438 607.757812 337.410156 607.664062 333.675781 607.480469 C 329.941406 607.296875 326.210938 607.019531 322.488281 606.652344 C 318.769531 606.285156 315.058594 605.828125 311.355469 605.277344 C 307.65625 604.726562 303.972656 604.085938 300.304688 603.355469 C 296.636719 602.625 292.988281 601.804688 289.359375 600.894531 C 285.730469 599.988281 282.128906 598.988281 278.550781 597.902344 C 274.972656 596.816406 271.421875 595.640625 267.902344 594.378906 C 264.378906 593.121094 260.890625 591.773438 257.433594 590.339844 C 253.980469 588.910156 250.5625 587.394531 247.179688 585.792969 C 243.800781 584.191406 240.460938 582.511719 237.160156 580.746094 C 233.863281 578.984375 230.609375 577.140625 227.402344 575.214844 C 224.195312 573.292969 221.039062 571.289062 217.925781 569.210938 C 214.820312 567.132812 211.761719 564.980469 208.757812 562.75 C 205.753906 560.523438 202.808594 558.222656 199.917969 555.847656 C 197.027344 553.472656 194.195312 551.03125 191.425781 548.519531 C 188.652344 546.007812 185.945312 543.425781 183.300781 540.78125 C 180.65625 538.136719 178.082031 535.425781 175.570312 532.65625 C 173.058594 529.882812 170.617188 527.050781 168.242188 524.160156 C 165.871094 521.269531 163.570312 518.320312 161.34375 515.316406 C 159.117188 512.308594 156.960938 509.253906 154.886719 506.140625 C 152.808594 503.03125 150.808594 499.871094 148.886719 496.664062 C 146.964844 493.457031 145.121094 490.203125 143.359375 486.902344 C 141.597656 483.605469 139.917969 480.261719 138.320312 476.882812 C 136.722656 473.5 135.207031 470.082031 133.777344 466.625 C 132.34375 463.167969 131 459.679688 129.742188 456.160156 C 128.480469 452.636719 127.308594 449.085938 126.226562 445.507812 C 125.140625 441.925781 124.144531 438.324219 123.238281 434.695312 C 122.328125 431.066406 121.511719 427.417969 120.78125 423.75 C 120.050781 420.082031 119.414062 416.398438 118.867188 412.695312 C 118.316406 408.996094 117.859375 405.285156 117.496094 401.5625 C 117.128906 397.839844 116.855469 394.113281 116.671875 390.375 C 116.488281 386.640625 116.398438 382.902344 116.398438 379.164062 C 116.402344 375.421875 116.492188 371.683594 116.675781 367.949219 C 116.863281 364.210938 117.136719 360.484375 117.503906 356.761719 C 117.871094 353.039062 118.332031 349.328125 118.878906 345.628906 C 119.429688 341.929688 120.070312 338.246094 120.800781 334.578125 C 121.53125 330.910156 122.351562 327.261719 123.261719 323.632812 C 124.171875 320.003906 125.167969 316.402344 126.253906 312.820312 C 127.339844 309.242188 128.515625 305.691406 129.773438 302.171875 C 131.035156 298.648438 132.382812 295.160156 133.816406 291.707031 C 135.246094 288.25 136.765625 284.832031 138.363281 281.453125 C 139.964844 278.070312 141.644531 274.730469 143.410156 271.433594 C 145.171875 268.136719 147.015625 264.882812 148.9375 261.675781 C 150.863281 258.46875 152.863281 255.308594 154.941406 252.199219 C 157.023438 249.089844 159.175781 246.03125 161.402344 243.027344 C 163.632812 240.023438 165.933594 237.078125 168.304688 234.1875 C 170.679688 231.296875 173.125 228.464844 175.636719 225.695312 C 178.148438 222.925781 180.726562 220.214844 183.371094 217.570312 C 186.015625 214.929688 188.726562 212.351562 191.496094 209.839844 C 194.269531 207.328125 197.101562 204.886719 199.992188 202.515625 C 202.886719 200.140625 205.835938 197.839844 208.835938 195.613281 C 211.84375 193.386719 214.898438 191.234375 218.007812 189.15625 C 221.121094 187.078125 224.28125 185.078125 227.488281 183.15625 C 230.695312 181.234375 233.953125 179.394531 237.25 177.628906 C 240.550781 175.867188 243.890625 174.1875 247.269531 172.589844 C 250.652344 170.992188 254.070312 169.476562 257.527344 168.046875 C 260.980469 166.613281 264.472656 165.269531 267.992188 164.011719 C 271.515625 162.75 275.066406 161.578125 278.644531 160.492188 C 282.222656 159.410156 285.828125 158.410156 289.457031 157.503906 C 293.085938 156.597656 296.734375 155.777344 300.402344 155.046875 C 304.070312 154.320312 307.757812 153.679688 311.457031 153.132812 C 315.15625 152.585938 318.867188 152.128906 322.589844 151.761719 C 326.3125 151.394531 330.039062 151.121094 333.777344 150.9375 C 337.511719 150.757812 341.25 150.664062 344.988281 150.664062 C 348.730469 150.667969 352.46875 150.761719 356.207031 150.945312 C 359.941406 151.128906 363.667969 151.40625 367.390625 151.777344 C 371.113281 152.144531 374.824219 152.601562 378.523438 153.152344 C 382.222656 153.703125 385.90625 154.34375 389.574219 155.074219 C 393.242188 155.804688 396.890625 156.625 400.519531 157.535156 C 404.148438 158.445312 407.75 159.445312 411.332031 160.53125 C 414.910156 161.621094 418.460938 162.792969 421.980469 164.054688 C 425.503906 165.316406 428.988281 166.664062 432.445312 168.09375 C 435.898438 169.527344 439.316406 171.042969 442.699219 172.644531 C 446.078125 174.246094 449.417969 175.925781 452.71875 177.691406 C 456.015625 179.457031 459.269531 181.300781 462.476562 183.222656 C 465.683594 185.148438 468.84375 187.148438 471.949219 189.226562 C 475.058594 191.304688 478.117188 193.460938 481.121094 195.6875 C 484.125 197.917969 487.074219 200.21875 489.960938 202.59375 C 492.855469 204.964844 495.683594 207.410156 498.453125 209.921875 C 501.222656 212.433594 503.929688 215.011719 506.574219 217.660156 C 509.21875 220.304688 511.796875 223.011719 514.308594 225.785156 C 516.820312 228.558594 519.261719 231.390625 521.632812 234.28125 C 524.007812 237.171875 526.308594 240.121094 528.535156 243.125 C 530.761719 246.128906 532.914062 249.1875 534.992188 252.296875 C 537.070312 255.40625 539.070312 258.566406 540.992188 261.777344 C 542.914062 264.984375 544.753906 268.238281 546.519531 271.535156 C 548.28125 274.835938 549.960938 278.175781 551.558594 281.558594 C 553.15625 284.9375 554.671875 288.359375 556.101562 291.8125 C 557.535156 295.269531 558.878906 298.757812 560.140625 302.28125 C 561.398438 305.800781 562.570312 309.351562 563.65625 312.929688 C 564.742188 316.511719 565.738281 320.113281 566.648438 323.742188 C 567.554688 327.371094 568.375 331.019531 569.105469 334.6875 C 569.832031 338.355469 570.472656 342.039062 571.023438 345.742188 C 571.570312 349.441406 572.027344 353.152344 572.394531 356.875 C 572.761719 360.597656 573.035156 364.324219 573.21875 368.0625 C 573.402344 371.796875 573.492188 375.535156 573.492188 379.273438 Z M 573.492188 379.273438 "/><path style=" stroke:none;fill-rule:nonzero;fill:#ffb700;fill-opacity:1;" d="M 487.980469 379.273438 C 487.980469 381.617188 487.921875 383.953125 487.804688 386.292969 C 487.691406 388.628906 487.519531 390.960938 487.289062 393.289062 C 487.0625 395.617188 486.773438 397.941406 486.429688 400.253906 C 486.085938 402.570312 485.683594 404.875 485.226562 407.167969 C 484.773438 409.464844 484.261719 411.746094 483.691406 414.015625 C 483.121094 416.285156 482.496094 418.539062 481.820312 420.78125 C 481.140625 423.019531 480.40625 425.242188 479.617188 427.445312 C 478.828125 429.644531 477.984375 431.828125 477.085938 433.992188 C 476.191406 436.152344 475.246094 438.289062 474.242188 440.40625 C 473.242188 442.519531 472.191406 444.609375 471.085938 446.675781 C 469.984375 448.738281 468.828125 450.773438 467.625 452.78125 C 466.421875 454.785156 465.171875 456.761719 463.871094 458.707031 C 462.570312 460.652344 461.222656 462.566406 459.828125 464.445312 C 458.433594 466.324219 456.996094 468.167969 455.511719 469.976562 C 454.027344 471.785156 452.496094 473.558594 450.925781 475.289062 C 449.355469 477.023438 447.742188 478.71875 446.085938 480.371094 C 444.429688 482.027344 442.734375 483.640625 441.003906 485.210938 C 439.265625 486.78125 437.496094 488.308594 435.6875 489.792969 C 433.878906 491.277344 432.035156 492.71875 430.15625 494.109375 C 428.277344 495.503906 426.363281 496.851562 424.417969 498.152344 C 422.472656 499.449219 420.492188 500.703125 418.484375 501.90625 C 416.480469 503.109375 414.445312 504.261719 412.378906 505.363281 C 410.316406 506.464844 408.226562 507.515625 406.109375 508.515625 C 403.992188 509.519531 401.855469 510.464844 399.691406 511.359375 C 397.527344 512.253906 395.347656 513.097656 393.144531 513.886719 C 390.941406 514.671875 388.71875 515.40625 386.480469 516.085938 C 384.242188 516.765625 381.984375 517.386719 379.714844 517.957031 C 377.445312 518.523438 375.164062 519.039062 372.867188 519.492188 C 370.574219 519.949219 368.269531 520.347656 365.953125 520.691406 C 363.640625 521.035156 361.316406 521.320312 358.988281 521.550781 C 356.660156 521.78125 354.328125 521.953125 351.988281 522.066406 C 349.652344 522.179688 347.3125 522.238281 344.972656 522.238281 C 342.632812 522.238281 340.292969 522.179688 337.957031 522.0625 C 335.621094 521.949219 333.289062 521.777344 330.960938 521.546875 C 328.628906 521.316406 326.308594 521.03125 323.996094 520.6875 C 321.679688 520.34375 319.375 519.941406 317.078125 519.488281 C 314.785156 519.03125 312.503906 518.515625 310.234375 517.949219 C 307.960938 517.378906 305.707031 516.753906 303.46875 516.074219 C 301.230469 515.394531 299.007812 514.660156 296.804688 513.875 C 294.601562 513.085938 292.417969 512.242188 290.257812 511.347656 C 288.09375 510.449219 285.957031 509.503906 283.839844 508.503906 C 281.726562 507.5 279.636719 506.449219 277.574219 505.347656 C 275.511719 504.242188 273.476562 503.089844 271.46875 501.886719 C 269.460938 500.683594 267.484375 499.429688 265.539062 498.132812 C 263.59375 496.832031 261.683594 495.484375 259.800781 494.089844 C 257.921875 492.695312 256.078125 491.257812 254.269531 489.769531 C 252.460938 488.285156 250.691406 486.757812 248.957031 485.1875 C 247.222656 483.613281 245.527344 482.003906 243.871094 480.347656 C 242.21875 478.691406 240.605469 476.996094 239.035156 475.265625 C 237.464844 473.53125 235.933594 471.757812 234.449219 469.949219 C 232.964844 468.140625 231.527344 466.296875 230.132812 464.417969 C 228.738281 462.535156 227.394531 460.625 226.09375 458.679688 C 224.792969 456.734375 223.542969 454.757812 222.339844 452.75 C 221.136719 450.742188 219.984375 448.707031 218.882812 446.640625 C 217.777344 444.578125 216.726562 442.488281 215.726562 440.375 C 214.726562 438.257812 213.777344 436.121094 212.882812 433.957031 C 211.988281 431.796875 211.148438 429.613281 210.359375 427.410156 C 209.570312 425.207031 208.835938 422.984375 208.15625 420.746094 C 207.476562 418.507812 206.851562 416.25 206.285156 413.980469 C 205.71875 411.710938 205.207031 409.429688 204.75 407.132812 C 204.292969 404.839844 203.894531 402.535156 203.550781 400.21875 C 203.207031 397.90625 202.917969 395.582031 202.691406 393.253906 C 202.460938 390.925781 202.289062 388.59375 202.175781 386.253906 C 202.058594 383.917969 202.003906 381.578125 202.003906 379.238281 C 202.003906 376.898438 202.0625 374.5625 202.175781 372.222656 C 202.292969 369.886719 202.464844 367.554688 202.691406 365.222656 C 202.921875 362.894531 203.207031 360.574219 203.550781 358.257812 C 203.894531 355.945312 204.296875 353.640625 204.75 351.34375 C 205.207031 349.050781 205.722656 346.765625 206.289062 344.496094 C 206.859375 342.226562 207.480469 339.972656 208.160156 337.734375 C 208.839844 335.496094 209.574219 333.273438 210.363281 331.070312 C 211.152344 328.867188 211.996094 326.683594 212.886719 324.523438 C 213.785156 322.359375 214.734375 320.222656 215.734375 318.105469 C 216.734375 315.992188 217.789062 313.902344 218.890625 311.839844 C 219.992188 309.773438 221.148438 307.738281 222.347656 305.730469 C 223.554688 303.726562 224.804688 301.75 226.101562 299.804688 C 227.402344 297.859375 228.75 295.945312 230.144531 294.066406 C 231.539062 292.1875 232.980469 290.34375 234.464844 288.535156 C 235.949219 286.722656 237.476562 284.953125 239.046875 283.21875 C 240.621094 281.484375 242.234375 279.792969 243.886719 278.136719 C 245.539062 276.480469 247.234375 274.867188 248.96875 273.296875 C 250.703125 271.726562 252.476562 270.199219 254.28125 268.714844 C 256.089844 267.230469 257.9375 265.789062 259.816406 264.394531 C 261.695312 263.003906 263.609375 261.65625 265.554688 260.355469 C 267.5 259.054688 269.476562 257.804688 271.484375 256.601562 C 273.492188 255.398438 275.527344 254.246094 277.589844 253.140625 C 279.65625 252.039062 281.742188 250.988281 283.859375 249.988281 C 285.972656 248.984375 288.113281 248.039062 290.273438 247.144531 C 292.4375 246.246094 294.621094 245.40625 296.824219 244.617188 C 299.027344 243.828125 301.246094 243.09375 303.484375 242.414062 C 305.726562 241.738281 307.980469 241.113281 310.25 240.542969 C 312.519531 239.976562 314.804688 239.464844 317.097656 239.007812 C 319.394531 238.550781 321.699219 238.148438 324.011719 237.808594 C 326.328125 237.464844 328.648438 237.175781 330.980469 236.949219 C 333.308594 236.71875 335.640625 236.546875 337.976562 236.433594 C 340.3125 236.316406 342.652344 236.257812 344.992188 236.257812 C 347.332031 236.257812 349.671875 236.316406 352.007812 236.429688 C 354.347656 236.542969 356.683594 236.714844 359.011719 236.941406 C 361.339844 237.171875 363.664062 237.457031 365.976562 237.800781 C 368.292969 238.140625 370.601562 238.542969 372.894531 238.996094 C 375.191406 239.453125 377.472656 239.964844 379.746094 240.53125 C 382.015625 241.101562 384.269531 241.726562 386.511719 242.402344 C 388.75 243.082031 390.972656 243.816406 393.179688 244.605469 C 395.382812 245.390625 397.566406 246.234375 399.730469 247.128906 C 401.890625 248.023438 404.03125 248.972656 406.148438 249.972656 C 408.261719 250.972656 410.355469 252.027344 412.417969 253.128906 C 414.480469 254.230469 416.519531 255.386719 418.527344 256.589844 C 420.535156 257.792969 422.511719 259.042969 424.457031 260.34375 C 426.402344 261.644531 428.316406 262.992188 430.195312 264.386719 C 432.074219 265.78125 433.921875 267.21875 435.730469 268.703125 C 437.539062 270.1875 439.3125 271.71875 441.046875 273.289062 C 442.78125 274.863281 444.472656 276.476562 446.128906 278.128906 C 447.785156 279.785156 449.398438 281.480469 450.96875 283.214844 C 452.542969 284.949219 454.070312 286.722656 455.554688 288.53125 C 457.039062 290.339844 458.476562 292.1875 459.871094 294.066406 C 461.265625 295.945312 462.613281 297.859375 463.914062 299.808594 C 465.214844 301.753906 466.464844 303.730469 467.667969 305.738281 C 468.871094 307.746094 470.023438 309.78125 471.125 311.847656 C 472.226562 313.914062 473.28125 316.003906 474.277344 318.117188 C 475.277344 320.234375 476.226562 322.375 477.121094 324.539062 C 478.015625 326.699219 478.859375 328.882812 479.644531 331.089844 C 480.433594 333.292969 481.164062 335.515625 481.84375 337.753906 C 482.523438 339.996094 483.144531 342.25 483.710938 344.519531 C 484.28125 346.792969 484.792969 349.074219 485.246094 351.371094 C 485.703125 353.667969 486.101562 355.972656 486.441406 358.289062 C 486.785156 360.605469 487.070312 362.925781 487.296875 365.257812 C 487.527344 367.585938 487.699219 369.917969 487.8125 372.257812 C 487.925781 374.59375 487.980469 376.933594 487.980469 379.273438 Z M 487.980469 379.273438 "/><path style=" stroke:none;fill-rule:nonzero;fill:#f4f4f4;fill-opacity:1;" d="M 409.144531 379.273438 C 409.144531 380.324219 409.121094 381.375 409.070312 382.425781 C 409.015625 383.476562 408.941406 384.523438 408.839844 385.570312 C 408.738281 386.613281 408.609375 387.65625 408.453125 388.695312 C 408.300781 389.734375 408.121094 390.769531 407.917969 391.800781 C 407.710938 392.832031 407.480469 393.855469 407.226562 394.875 C 406.972656 395.894531 406.691406 396.90625 406.386719 397.914062 C 406.082031 398.917969 405.753906 399.917969 405.402344 400.90625 C 405.046875 401.894531 404.667969 402.875 404.269531 403.847656 C 403.867188 404.816406 403.441406 405.777344 402.992188 406.726562 C 402.542969 407.679688 402.070312 408.617188 401.574219 409.542969 C 401.082031 410.46875 400.5625 411.382812 400.023438 412.285156 C 399.484375 413.1875 398.921875 414.074219 398.339844 414.949219 C 397.753906 415.824219 397.148438 416.683594 396.523438 417.527344 C 395.898438 418.371094 395.253906 419.199219 394.585938 420.011719 C 393.921875 420.824219 393.234375 421.617188 392.527344 422.398438 C 391.824219 423.175781 391.097656 423.9375 390.359375 424.679688 C 389.613281 425.421875 388.851562 426.148438 388.074219 426.855469 C 387.296875 427.558594 386.5 428.246094 385.6875 428.914062 C 384.875 429.578125 384.050781 430.226562 383.207031 430.851562 C 382.359375 431.476562 381.5 432.082031 380.628906 432.667969 C 379.753906 433.25 378.867188 433.8125 377.96875 434.355469 C 377.066406 434.894531 376.152344 435.414062 375.226562 435.90625 C 374.296875 436.402344 373.359375 436.875 372.410156 437.324219 C 371.460938 437.773438 370.5 438.199219 369.53125 438.601562 C 368.5625 439.003906 367.582031 439.382812 366.589844 439.738281 C 365.601562 440.089844 364.605469 440.421875 363.597656 440.726562 C 362.59375 441.03125 361.578125 441.3125 360.5625 441.566406 C 359.542969 441.824219 358.515625 442.054688 357.484375 442.257812 C 356.457031 442.464844 355.421875 442.644531 354.382812 442.796875 C 353.34375 442.953125 352.300781 443.082031 351.253906 443.183594 C 350.207031 443.285156 349.160156 443.363281 348.109375 443.414062 C 347.0625 443.46875 346.011719 443.492188 344.960938 443.492188 C 343.910156 443.492188 342.859375 443.46875 341.808594 443.414062 C 340.761719 443.363281 339.714844 443.289062 338.667969 443.183594 C 337.621094 443.082031 336.578125 442.953125 335.539062 442.796875 C 334.5 442.644531 333.464844 442.464844 332.433594 442.261719 C 331.402344 442.054688 330.378906 441.824219 329.359375 441.570312 C 328.339844 441.316406 327.328125 441.035156 326.324219 440.730469 C 325.316406 440.425781 324.320312 440.09375 323.332031 439.742188 C 322.339844 439.386719 321.363281 439.007812 320.390625 438.605469 C 319.421875 438.203125 318.460938 437.78125 317.511719 437.332031 C 316.558594 436.878906 315.621094 436.410156 314.695312 435.914062 C 313.769531 435.417969 312.855469 434.898438 311.953125 434.359375 C 311.050781 433.820312 310.164062 433.257812 309.289062 432.671875 C 308.417969 432.089844 307.558594 431.484375 306.714844 430.859375 C 305.871094 430.234375 305.042969 429.585938 304.230469 428.921875 C 303.417969 428.253906 302.625 427.566406 301.84375 426.863281 C 301.066406 426.15625 300.304688 425.433594 299.5625 424.6875 C 298.820312 423.945312 298.09375 423.183594 297.390625 422.40625 C 296.683594 421.628906 296 420.832031 295.332031 420.019531 C 294.664062 419.207031 294.019531 418.378906 293.394531 417.535156 C 292.765625 416.691406 292.160156 415.832031 291.578125 414.957031 C 290.996094 414.085938 290.433594 413.199219 289.890625 412.296875 C 289.351562 411.394531 288.835938 410.480469 288.339844 409.554688 C 287.84375 408.628906 287.371094 407.6875 286.921875 406.738281 C 286.472656 405.789062 286.046875 404.828125 285.648438 403.859375 C 285.246094 402.886719 284.867188 401.90625 284.511719 400.917969 C 284.160156 399.929688 283.828125 398.929688 283.527344 397.925781 C 283.222656 396.917969 282.941406 395.90625 282.683594 394.886719 C 282.429688 393.867188 282.199219 392.84375 281.996094 391.8125 C 281.789062 390.78125 281.609375 389.746094 281.457031 388.707031 C 281.304688 387.667969 281.175781 386.625 281.074219 385.582031 C 280.96875 384.535156 280.890625 383.488281 280.839844 382.4375 C 280.789062 381.386719 280.765625 380.335938 280.765625 379.285156 C 280.765625 378.234375 280.792969 377.1875 280.84375 376.136719 C 280.894531 375.085938 280.972656 374.039062 281.074219 372.992188 C 281.179688 371.949219 281.308594 370.90625 281.460938 369.867188 C 281.617188 368.828125 281.796875 367.792969 282.003906 366.761719 C 282.207031 365.730469 282.4375 364.707031 282.691406 363.6875 C 282.949219 362.667969 283.230469 361.65625 283.535156 360.648438 C 283.839844 359.644531 284.171875 358.648438 284.527344 357.660156 C 284.878906 356.667969 285.257812 355.6875 285.660156 354.71875 C 286.0625 353.746094 286.488281 352.789062 286.9375 351.839844 C 287.386719 350.886719 287.859375 349.949219 288.355469 349.023438 C 288.851562 348.097656 289.367188 347.183594 289.910156 346.28125 C 290.449219 345.382812 291.011719 344.492188 291.59375 343.621094 C 292.179688 342.746094 292.785156 341.886719 293.410156 341.042969 C 294.035156 340.199219 294.683594 339.375 295.351562 338.5625 C 296.015625 337.75 296.703125 336.953125 297.410156 336.175781 C 298.117188 335.398438 298.839844 334.636719 299.585938 333.894531 C 300.328125 333.152344 301.089844 332.425781 301.867188 331.722656 C 302.644531 331.015625 303.441406 330.332031 304.253906 329.664062 C 305.066406 329 305.894531 328.351562 306.738281 327.726562 C 307.582031 327.101562 308.441406 326.496094 309.316406 325.914062 C 310.191406 325.332031 311.078125 324.769531 311.980469 324.230469 C 312.882812 323.6875 313.796875 323.171875 314.722656 322.675781 C 315.652344 322.183594 316.589844 321.710938 317.539062 321.261719 C 318.488281 320.8125 319.449219 320.386719 320.421875 319.984375 C 321.390625 319.585938 322.371094 319.207031 323.359375 318.851562 C 324.351562 318.5 325.347656 318.171875 326.351562 317.867188 C 327.359375 317.5625 328.371094 317.28125 329.386719 317.027344 C 330.40625 316.773438 331.433594 316.542969 332.464844 316.339844 C 333.496094 316.132812 334.53125 315.953125 335.570312 315.800781 C 336.609375 315.648438 337.652344 315.519531 338.699219 315.417969 C 339.742188 315.316406 340.789062 315.238281 341.839844 315.1875 C 342.890625 315.136719 343.941406 315.109375 344.992188 315.113281 C 346.042969 315.113281 347.089844 315.140625 348.140625 315.191406 C 349.1875 315.246094 350.234375 315.324219 351.277344 315.425781 C 352.324219 315.53125 353.363281 315.660156 354.402344 315.8125 C 355.441406 315.96875 356.472656 316.148438 357.503906 316.355469 C 358.53125 316.558594 359.558594 316.792969 360.574219 317.046875 C 361.59375 317.300781 362.605469 317.582031 363.609375 317.886719 C 364.613281 318.195312 365.609375 318.523438 366.597656 318.878906 C 367.585938 319.230469 368.5625 319.609375 369.535156 320.011719 C 370.503906 320.414062 371.464844 320.839844 372.414062 321.289062 C 373.363281 321.738281 374.296875 322.210938 375.222656 322.707031 C 376.148438 323.203125 377.0625 323.71875 377.964844 324.257812 C 378.863281 324.800781 379.75 325.359375 380.621094 325.945312 C 381.496094 326.527344 382.351562 327.132812 383.195312 327.757812 C 384.039062 328.382812 384.867188 329.03125 385.679688 329.695312 C 386.488281 330.363281 387.285156 331.046875 388.0625 331.753906 C 388.839844 332.457031 389.597656 333.179688 390.339844 333.921875 C 391.082031 334.664062 391.808594 335.425781 392.511719 336.203125 C 393.21875 336.980469 393.902344 337.777344 394.566406 338.585938 C 395.234375 339.398438 395.878906 340.226562 396.507812 341.070312 C 397.132812 341.914062 397.734375 342.769531 398.320312 343.644531 C 398.902344 344.515625 399.464844 345.402344 400.003906 346.304688 C 400.542969 347.203125 401.0625 348.117188 401.554688 349.042969 C 402.050781 349.96875 402.523438 350.90625 402.972656 351.851562 C 403.421875 352.800781 403.847656 353.761719 404.25 354.730469 C 404.652344 355.699219 405.03125 356.679688 405.386719 357.667969 C 405.738281 358.65625 406.070312 359.652344 406.371094 360.65625 C 406.679688 361.660156 406.960938 362.671875 407.214844 363.691406 C 407.472656 364.710938 407.699219 365.734375 407.90625 366.761719 C 408.109375 367.792969 408.289062 368.824219 408.445312 369.863281 C 408.601562 370.902344 408.730469 371.945312 408.832031 372.988281 C 408.9375 374.03125 409.015625 375.078125 409.066406 376.128906 C 409.121094 377.175781 409.144531 378.226562 409.144531 379.273438 Z M 409.144531 379.273438 "/><path style=" stroke:none;fill-rule:nonzero;fill:#525272;fill-opacity:1;" d="M 355.128906 384.523438 C 354.761719 385.316406 354.324219 386.0625 353.808594 386.769531 C 353.292969 387.472656 352.714844 388.121094 352.074219 388.710938 C 351.429688 389.304688 350.738281 389.824219 349.992188 390.28125 C 349.25 390.734375 348.46875 391.109375 347.648438 391.410156 C 346.828125 391.710938 345.988281 391.929688 345.125 392.0625 C 344.261719 392.199219 343.398438 392.246094 342.523438 392.210938 C 341.652344 392.175781 340.792969 392.054688 339.945312 391.847656 C 339.097656 391.640625 338.277344 391.355469 337.484375 390.988281 C 336.691406 390.621094 335.945312 390.179688 335.242188 389.664062 C 334.535156 389.152344 333.886719 388.574219 333.296875 387.929688 C 332.707031 387.289062 332.183594 386.59375 331.730469 385.851562 C 331.277344 385.105469 330.898438 384.324219 330.601562 383.503906 C 330.300781 382.683594 330.082031 381.84375 329.945312 380.980469 C 329.8125 380.121094 329.765625 379.253906 329.800781 378.382812 C 329.835938 377.507812 329.957031 376.648438 330.164062 375.800781 C 330.367188 374.953125 330.652344 374.132812 331.019531 373.34375 L 479.574219 55.039062 C 479.929688 54.222656 480.359375 53.445312 480.867188 52.714844 C 481.375 51.980469 481.953125 51.308594 482.59375 50.691406 C 483.238281 50.074219 483.9375 49.527344 484.691406 49.050781 C 485.441406 48.574219 486.234375 48.179688 487.070312 47.859375 C 487.902344 47.542969 488.757812 47.3125 489.636719 47.167969 C 490.515625 47.019531 491.402344 46.964844 492.292969 46.996094 C 493.183594 47.027344 494.0625 47.148438 494.929688 47.355469 C 495.796875 47.5625 496.632812 47.855469 497.441406 48.230469 C 498.25 48.609375 499.011719 49.0625 499.730469 49.589844 C 500.449219 50.117188 501.105469 50.714844 501.703125 51.375 C 502.300781 52.035156 502.828125 52.75 503.28125 53.515625 C 503.738281 54.28125 504.109375 55.085938 504.402344 55.929688 C 504.695312 56.769531 504.90625 57.632812 505.023438 58.515625 C 505.144531 59.398438 505.175781 60.285156 505.117188 61.175781 C 505.0625 62.0625 504.917969 62.9375 504.683594 63.800781 C 504.453125 64.660156 504.136719 65.488281 503.738281 66.285156 Z M 355.128906 384.523438 "/><path style=" stroke:none;fill-rule:nonzero;fill:#000000;fill-opacity:1;" d="M 477.363281 60.171875 L 455.503906 0 L 401.199219 116.28125 L 423.015625 176.429688 Z M 477.363281 60.171875 "/><path style=" stroke:none;fill-rule:nonzero;fill:#000000;fill-opacity:1;" d="M 507.035156 165.75 L 446.972656 187.519531 L 501.183594 71.246094 L 561.195312 49.414062 Z M 507.035156 165.75 "/></g></svg>